<svg width="39" height="37" viewBox="0 0 39 37" fill="none" xmlns="http://www.w3.org/2000/svg">
<g id="behoof_logo">
<path id="path0" d="M0 36.4417L2.45449 36.4315L4.90873 36.4213L6.1646 35.0368C6.85543 34.2754 7.50196 33.5646 7.60156 33.4574C7.85117 33.1883 9.98508 30.8331 10.3049 30.4739C10.6784 30.0541 17.1782 22.8896 17.2822 22.7828C17.3302 22.7338 17.7521 22.2681 18.22 21.7479C18.6879 21.2278 19.0926 20.8022 19.1193 20.8022C19.146 20.8022 19.5507 21.2278 20.0186 21.7479C20.4865 22.2681 20.9091 22.7342 20.9576 22.7841C21.0626 22.8917 27.558 30.0515 27.9339 30.4739C28.2513 30.8307 30.3857 33.1863 30.6373 33.4574C30.7366 33.5646 31.3832 34.2754 32.074 35.0368L33.3299 36.4213L35.7841 36.4315L38.2386 36.4417V18.3453V0.248779L35.7858 0.258959L33.3333 0.269139L32.9929 0.639627C32.8059 0.84338 32.4305 1.25582 32.1591 1.55613C31.8875 1.85644 31.3902 2.40477 31.054 2.77479C30.7175 3.14482 30.164 3.75469 29.8236 4.13011C28.3612 5.74301 27.943 6.20388 27.2218 6.99653C26.8021 7.45771 26.3582 7.94897 26.2353 8.08841C26.1125 8.22784 25.7797 8.59648 25.4958 8.90743C24.9237 9.53442 23.8951 10.6686 23.4622 11.1499C23.3078 11.3215 23.0359 11.6198 22.8578 11.8129C22.5206 12.1781 21.1844 13.6534 20.7914 14.0943C20.6671 14.2337 20.3566 14.576 20.1008 14.8548C19.8454 15.1337 19.5326 15.4803 19.4058 15.6251C19.2654 15.7854 19.1931 15.8663 19.1216 15.868C19.0485 15.8697 18.9762 15.7888 18.8327 15.6251C18.706 15.4803 18.3932 15.1337 18.1377 14.8548C17.8823 14.576 17.5715 14.2337 17.4472 14.0943C17.0541 13.6534 15.718 12.1781 15.3808 11.8129C15.2026 11.6198 14.9308 11.3215 14.7763 11.1499C14.3434 10.6686 13.3152 9.53442 12.7428 8.90743C12.4589 8.59648 12.1261 8.22784 12.0032 8.08841C11.8804 7.94897 11.4365 7.45771 11.0168 6.99653C10.5971 6.53535 9.98337 5.85962 9.65276 5.49499C9.32215 5.13036 8.77325 4.52497 8.43286 4.14954C8.0927 3.77412 7.535 3.15993 7.19362 2.78466C6.85249 2.40924 6.35107 1.85644 6.07944 1.55613C5.80805 1.25582 5.4329 0.84338 5.2457 0.639627L4.9053 0.269139L2.45277 0.258959L0 0.248779V18.3453V36.4417ZM8.60636 9.15483C8.76273 9.32974 10.6813 11.4469 12.8698 13.8595C15.0583 16.272 16.8606 18.2744 16.875 18.3092C16.9019 18.3737 16.7465 18.5609 15.8421 19.5542C15.5589 19.8652 15.0529 20.4225 14.7174 20.7925C14.3819 21.1624 13.832 21.7679 13.4955 22.1379C12.6424 23.0757 11.4088 24.4385 11.1387 24.7411C11.0143 24.8805 10.6808 25.249 10.3974 25.5601C9.87741 26.1309 9.18389 26.8952 8.03569 28.1632C7.27952 28.9981 7.06099 29.2388 6.5745 29.772C5.8149 30.6047 4.67233 31.8675 4.41122 32.1632C4.0833 32.5346 3.84495 32.7749 3.80457 32.7749C3.78793 32.7749 3.77447 26.2815 3.77447 18.3453C3.77447 10.409 3.79528 3.91602 3.82073 3.91649C3.84642 3.9171 4.86957 5.02425 6.09461 6.3771C7.3199 7.72979 8.44999 8.97992 8.60636 9.15483ZM34.434 32.7749C34.3934 32.7749 34.154 32.5333 33.8278 32.1632C33.5922 31.8959 33.1292 31.3844 31.6629 29.772C31.0215 29.0666 30.8472 28.8746 30.2029 28.1632C29.8583 27.7826 29.3009 27.1682 28.9646 26.7983C27.9611 25.6944 27.341 25.0099 27.1004 24.7411C26.82 24.4275 25.5594 23.0356 24.7521 22.1477C24.4205 21.783 23.8707 21.1775 23.5303 20.8022C23.1899 20.4268 22.6796 19.8652 22.3965 19.5542C21.492 18.5609 21.3366 18.3737 21.3636 18.3092C21.378 18.2744 23.1803 16.272 25.3688 13.8595C27.5573 11.4469 29.4758 9.32974 29.6322 9.15483C31.2297 7.36717 34.3814 3.91726 34.4179 3.91649C34.4433 3.91602 34.4641 10.409 34.4641 18.3453C34.4641 26.2815 34.4506 32.7749 34.434 32.7749Z" fill="#FF4D4D"/>
<path id="path1" d="M38.1982 0.248779V36.4213H33.2929L16.8374 18.335L19.3655 15.6047L33.2929 0.248779H38.1982ZM34.4237 3.89613L21.3204 18.3249L34.4237 32.7545V3.89613Z" fill="#FFC5BB"/>
</g>
</svg>
