<svg width="24" height="24" viewBox="0 0 24 24" fill="none" xmlns="http://www.w3.org/2000/svg">
  <!-- Создаем градиент для левой половины -->
  <linearGradient id="leftHalfGradient" x1="0" x2="1" y1="0" y2="0">
    <stop offset="0%" style="stop-color:#FF4D4D" />
    <stop offset="50%" style="stop-color:#FF4D4D" />
    <stop offset="50%" style="stop-color:#C3CAD4" />
    <stop offset="100%" style="stop-color:#C3CAD4" />
  </linearGradient>

  <!-- Задаем основной цвет звезды -->
  <path d="M12 2.99628C12.4789 2.33213 11.5198 2.33213 11.1344 2.99628L8.42034 7.67359C8.22997 8.00168 7.90092 8.22557 7.52585 8.28222L2.43954 9.05044C1.58526 9.17947 1.2856 10.2581 1.9509 10.8093L5.74 13.9485C6.09074 14.2391 6.25566 14.6975 6.17045 15.1449L5.17929 20.35C5.0226 21.1729 5.88639 21.8122 6.62754 21.4219L11.4169 18.9001C11.7815 18.7082 12.2172 18.7082 12.5817 18.9001L17.3711 21.4219C18.1123 21.8122 18.9761 21.1729 18.8194 20.35L17.8282 15.1449C17.743 14.6975 17.9079 14.2391 18.2587 13.9485L22.0477 10.8093C22.7131 10.2581 22.4134 9.17947 21.5591 9.05044L16.4728 8.28222C16.0977 8.22557 15.7687 8.00168 15.5783 7.67359L12.8643 2.99628Z" fill="url(#leftHalfGradient)" />
</svg>
